<?xml version="1.0" encoding="UTF-8" standalone="no"?>
<!DOCTYPE svg PUBLIC "-//W3C//DTD SVG 1.1//EN" "http://www.w3.org/Graphics/SVG/1.1/DTD/svg11.dtd">
<svg width="100%" height="100%" viewBox="0 0 200 200" version="1.1" xmlns="http://www.w3.org/2000/svg" xmlns:xlink="http://www.w3.org/1999/xlink" xml:space="preserve" style="fill-rule:evenodd;clip-rule:evenodd;stroke-linejoin:round;stroke-miterlimit:1.41421;">
    <g transform="matrix(14.8515,7.99466e-20,0,12.0921,69.4372,149.411)">
        <text x="0px" y="0px" style="font-family:'HiraginoSans-W0', 'Hiragino Sans', sans-serif;font-weight:100;font-size:9px;fill:none;">v</text>
        <text x="0px" y="0px" style="font-family:'HiraginoSans-W0', 'Hiragino Sans', sans-serif;font-weight:100;font-size:9px;fill:rgb(70,70,70);stroke:rgb(70,70,70);stroke-width:0.38px;">v</text>
    </g>
    <g id="a" transform="matrix(-14.8515,7.46755e-15,-9.17173e-15,-12.0921,131.184,91.8564)">
        <text x="0px" y="0px" style="font-family:'HiraginoSans-W0', 'Hiragino Sans', sans-serif;font-weight:100;font-size:9px;fill:none;">v</text>
        <text x="0px" y="0px" style="font-family:'HiraginoSans-W0', 'Hiragino Sans', sans-serif;font-weight:100;font-size:9px;fill:rgb(58,58,58);stroke:rgb(58,58,58);stroke-width:0.38px;">v</text>
    </g>
    <g transform="matrix(1.65104,8.88765e-21,0,1.34428,-10.8929,-53.507)">
        <path d="M87.359,153.594L47.213,153.594L47.213,105.522L87.359,105.522L87.359,153.594ZM52.127,111.558L52.127,147.558L82.445,147.558L82.445,111.558L52.127,111.558Z" style="fill:rgb(58,58,58);"/>
    </g>
    <g transform="matrix(2.72547,0,0,2.48521,-108.9,-50.6406)">
        <path d="M61.569,88.576L61.219,89.43L61.397,89.541L61.65,88.403L61.569,88.576ZM63.378,94.4L64.521,94.4L61.623,87.416L58.716,94.4L59.868,94.4L60.815,92.031L62.433,92.032L63.378,94.4ZM60.815,92.029L61.623,89.999L62.433,92.033L60.815,92.029Z" style="fill:rgb(70,70,70);fill-rule:nonzero;"/>
    </g>
    <g transform="matrix(2.72547,0,0,2.46902,-147.719,-49.1008)">
        <path d="M61.569,88.576L61.219,89.43L61.397,89.541L61.65,88.403L61.569,88.576ZM63.378,94.4L64.521,94.4L61.623,87.416L58.716,94.4L59.868,94.4L60.815,92.031L62.433,92.032L63.378,94.4ZM60.815,92.029L61.623,89.999L62.433,92.033L60.815,92.029Z" style="fill:rgb(58,58,58);fill-rule:nonzero;"/>
    </g>
    <g transform="matrix(2.72547,0,0,2.48524,-6.28401,-50.6155)">
        <path d="M61.569,88.576L61.219,89.43L61.397,89.541L61.65,88.403L61.569,88.576ZM63.378,94.4L64.521,94.4L61.623,87.416L58.716,94.4L59.868,94.4L60.815,92.031L62.433,92.032L63.378,94.4ZM60.815,92.029L61.623,89.999L62.433,92.033L60.815,92.029Z" style="fill:rgb(70,70,70);fill-rule:nonzero;"/>
    </g>
    <g transform="matrix(2.72547,0,0,2.59238,-147.809,-60.7246)">
        <path d="M69.21,93.455L66.42,93.455L66.42,87.722L65.376,87.722L65.376,94.4L69.21,94.4L69.21,93.455Z" style="fill:rgb(70,70,70);fill-rule:nonzero;"/>
    </g>
    <g transform="matrix(2.72547,0,0,2.48521,-147.809,-51.319)">
        <path d="M69.381,87.722L68.229,87.722L71.289,94.697L74.151,87.722L73.017,87.722L71.262,92.123L69.381,87.722Z" style="fill:rgb(70,70,70);fill-rule:nonzero;"/>
    </g>
    <g transform="matrix(2.72547,0,0,2.58685,-147.809,-60.209)">
        <path d="M82.512,91.988C82.872,91.862 83.124,91.655 83.286,91.475C83.637,91.088 83.826,90.548 83.826,89.936C83.826,89.315 83.637,88.775 83.286,88.388C83.016,88.082 82.503,87.722 81.621,87.722L80.523,87.722L79.641,87.722L79.641,94.4L80.685,94.4L80.685,92.141L81.45,92.141L83.133,94.4L84.312,94.4L82.512,91.988ZM80.685,91.205L80.685,88.667L81.621,88.667C82.053,88.667 82.377,88.784 82.584,89.018C82.836,89.288 82.881,89.666 82.881,89.936C82.881,90.197 82.836,90.575 82.584,90.845C82.377,91.079 82.053,91.205 81.621,91.205L80.685,91.205Z" style="fill:rgb(70,70,70);fill-rule:nonzero;"/>
    </g>
    <g transform="matrix(2.72547,0,0,2.57651,-147.809,-59.2564)">
        <path d="M88.11,94.4C88.56,94.4 89.001,94.31 89.415,94.139C89.811,93.968 90.162,93.725 90.477,93.419C90.783,93.113 91.017,92.762 91.188,92.357C91.359,91.952 91.449,91.511 91.449,91.061C91.449,90.611 91.359,90.17 91.188,89.756C91.017,89.36 90.783,89.009 90.477,88.694C90.162,88.388 89.811,88.154 89.415,87.983C89.001,87.812 88.56,87.722 88.11,87.722C87.66,87.722 87.219,87.812 86.814,87.983C86.409,88.154 86.058,88.388 85.752,88.694C85.446,89.009 85.203,89.36 85.032,89.756C84.861,90.17 84.771,90.611 84.771,91.061C84.771,91.511 84.861,91.952 85.032,92.357C85.203,92.762 85.446,93.113 85.752,93.419C86.058,93.725 86.409,93.968 86.814,94.139C87.219,94.31 87.66,94.4 88.11,94.4ZM88.11,88.766C88.722,88.766 89.298,89.009 89.73,89.441C90.162,89.873 90.405,90.449 90.405,91.061C90.405,91.673 90.162,92.249 89.73,92.681C89.298,93.113 88.722,93.356 88.11,93.356C87.498,93.356 86.922,93.113 86.49,92.681C86.058,92.249 85.815,91.673 85.815,91.061C85.815,90.449 86.058,89.873 86.49,89.441C86.922,89.009 87.498,88.766 88.11,88.766Z" style="fill:rgb(70,70,70);fill-rule:nonzero;"/>
    </g>
    <g transform="matrix(2.66387,0,0,2.40728,-46.5897,-60.354)">
        <g transform="matrix(1,0,0,1.02082,-1.42109e-14,-2.64578)">
            <path d="M59.289,95.047L58.137,95.047L61.197,102.022L64.059,95.047L62.925,95.047L61.17,99.448L59.289,95.047Z" style="fill:rgb(58,58,58);fill-rule:nonzero;"/>
        </g>
        <g transform="matrix(1,0,0,1.06954,1.42109e-14,-7.31361)">
            <path d="M67.263,101.725C67.713,101.725 68.154,101.635 68.568,101.464C68.964,101.293 69.315,101.05 69.63,100.744C69.936,100.438 70.17,100.087 70.341,99.682C70.512,99.277 70.602,98.836 70.602,98.386C70.602,97.936 70.512,97.495 70.341,97.081C70.17,96.685 69.936,96.334 69.63,96.019C69.315,95.713 68.964,95.479 68.568,95.308C68.154,95.137 67.713,95.047 67.263,95.047C66.813,95.047 66.372,95.137 65.967,95.308C65.562,95.479 65.211,95.713 64.905,96.019C64.599,96.334 64.356,96.685 64.185,97.081C64.014,97.495 63.924,97.936 63.924,98.386C63.924,98.836 64.014,99.277 64.185,99.682C64.356,100.087 64.599,100.438 64.905,100.744C65.211,101.05 65.562,101.293 65.967,101.464C66.372,101.635 66.813,101.725 67.263,101.725ZM67.263,96.091C67.875,96.091 68.451,96.334 68.883,96.766C69.315,97.198 69.558,97.774 69.558,98.386C69.558,98.998 69.315,99.574 68.883,100.006C68.451,100.438 67.875,100.681 67.263,100.681C66.651,100.681 66.075,100.438 65.643,100.006C65.211,99.574 64.968,98.998 64.968,98.386C64.968,97.774 65.211,97.198 65.643,96.766C66.075,96.334 66.651,96.091 67.263,96.091Z" style="fill:rgb(70,70,70);fill-rule:nonzero;"/>
        </g>
        <g transform="matrix(1,0,0,1.06969,-1.42109e-14,-7.3224)">
            <path d="M75.507,95.047L70.782,95.047L70.782,95.983L72.618,95.983L72.618,101.725L73.671,101.725L73.671,95.983L75.507,95.983L75.507,95.047Z" style="fill:rgb(70,70,70);fill-rule:nonzero;"/>
        </g>
        <g transform="matrix(1,0,0,0.984285,-1.42109e-14,1.07964)">
            <path d="M87.054,102.031L87.054,94.742L86.001,94.743L86.001,99.331L81.807,94.732L81.807,102.023L82.851,102.023L82.851,97.432L87.054,102.031Z" style="fill:rgb(70,70,70);fill-rule:nonzero;"/>
        </g>
    </g>
</svg>
